<?xml version="1.0" encoding="UTF-8" standalone="no"?>
<!-- Created with Inkscape (http://www.inkscape.org/) -->

<svg
   width="500"
   height="500"
   viewBox="0 0 132.29166 132.29167"
   version="1.1"
   id="svg1"
   xml:space="preserve"
   inkscape:version="1.4.4 (dcaf3e7d9e, 2026-05-05)"
   sodipodi:docname="compass.svg"
   xmlns:inkscape="http://www.inkscape.org/namespaces/inkscape"
   xmlns:sodipodi="http://sodipodi.sourceforge.net/DTD/sodipodi-0.dtd"
   xmlns:xlink="http://www.w3.org/1999/xlink"
   xmlns="http://www.w3.org/2000/svg"
   xmlns:svg="http://www.w3.org/2000/svg"><sodipodi:namedview
     id="namedview1"
     pagecolor="#ffffff"
     bordercolor="#666666"
     borderopacity="1.0"
     inkscape:showpageshadow="2"
     inkscape:pageopacity="0.0"
     inkscape:pagecheckerboard="0"
     inkscape:deskcolor="#d1d1d1"
     inkscape:document-units="mm"
     inkscape:zoom="1.78"
     inkscape:cx="222.47191"
     inkscape:cy="250.2809"
     inkscape:window-width="1916"
     inkscape:window-height="1165"
     inkscape:window-x="0"
     inkscape:window-y="0"
     inkscape:window-maximized="0"
     inkscape:current-layer="layer1" /><defs
     id="defs1"><linearGradient
       id="linearGradient12"
       inkscape:collect="always"><stop
         style="stop-color:#ebc99b;stop-opacity:1;"
         offset="0"
         id="stop13" /><stop
         style="stop-color:#a9673c;stop-opacity:1;"
         offset="1"
         id="stop14" /></linearGradient><linearGradient
       id="linearGradient10"
       inkscape:collect="always"><stop
         style="stop-color:#ebc99b;stop-opacity:1;"
         offset="0"
         id="stop11" /><stop
         style="stop-color:#a9673c;stop-opacity:1;"
         offset="1"
         id="stop12" /></linearGradient><linearGradient
       id="linearGradient8"
       inkscape:collect="always"><stop
         style="stop-color:#ebc99b;stop-opacity:1;"
         offset="0"
         id="stop9" /><stop
         style="stop-color:#a9673c;stop-opacity:1;"
         offset="1"
         id="stop10" /></linearGradient><linearGradient
       id="linearGradient6"
       inkscape:collect="always"><stop
         style="stop-color:#ebc99b;stop-opacity:1;"
         offset="0"
         id="stop7" /><stop
         style="stop-color:#a9673c;stop-opacity:1;"
         offset="1"
         id="stop8" /></linearGradient><linearGradient
       id="linearGradient5"
       inkscape:collect="always"><stop
         style="stop-color:#ebc99b;stop-opacity:1;"
         offset="0"
         id="stop5" /><stop
         style="stop-color:#a9673c;stop-opacity:1;"
         offset="1"
         id="stop6" /></linearGradient><radialGradient
       inkscape:collect="always"
       xlink:href="#linearGradient5"
       id="radialGradient6"
       cx="96.808852"
       cy="208.13719"
       fx="96.808852"
       fy="208.13719"
       r="3.162583"
       gradientTransform="matrix(1,0,0,1.1160166,0,-24.14736)"
       gradientUnits="userSpaceOnUse" /><radialGradient
       inkscape:collect="always"
       xlink:href="#linearGradient8"
       id="radialGradient10"
       cx="97.365887"
       cy="93.236657"
       fx="97.365887"
       fy="93.236657"
       r="3.5579135"
       gradientTransform="matrix(1,0,0,0.99201105,0,0.74486317)"
       gradientUnits="userSpaceOnUse" /><radialGradient
       inkscape:collect="always"
       xlink:href="#linearGradient12"
       id="radialGradient17"
       cx="97.168823"
       cy="150.07462"
       fx="97.168823"
       fy="150.07462"
       r="54.117069"
       gradientTransform="matrix(1,0,0,1.0016374,0,-0.24572786)"
       gradientUnits="userSpaceOnUse" /><linearGradient
       inkscape:collect="always"
       xlink:href="#linearGradient6"
       id="linearGradient17"
       x1="151.5481"
       y1="150.01804"
       x2="157.47536"
       y2="150.01804"
       gradientUnits="userSpaceOnUse" /><linearGradient
       inkscape:collect="always"
       xlink:href="#linearGradient10"
       id="linearGradient18"
       x1="33.907211"
       y1="149.42345"
       x2="44.278576"
       y2="149.42345"
       gradientUnits="userSpaceOnUse" /></defs><g
     inkscape:label="Layer 1"
     inkscape:groupmode="layer"
     id="layer1"
     transform="translate(-29.893869,-85.099255)"><path
       style="fill:#ebc99b;stroke:url(#radialGradient17);stroke-opacity:1;fill-opacity:1"
       d="m 96.498098,200.99712 c -0.3229,-1.74625 -0.69056,-3.84968 -0.81702,-4.6743 -0.22757,-1.48398 -0.24478,-1.49932 -1.68414,-1.50043 -20.38485,-0.0158 -40.1308,-19.85975 -41.57886,-41.78522 l -0.092,-1.3933 -2.64583,-0.46767 c -1.45521,-0.25723 -3.51896,-0.64982 -4.58611,-0.87243 l -1.94028,-0.40476 4.58104,-0.90927 4.58105,-0.90928 0.42194,-3.6198 c 2.37715,-20.39364 18.48603,-36.39992 39.27569,-39.02555 l 3.35139,-0.42327 0.85108,-4.57125 c 0.4681,-2.514181 0.93265,-4.333121 1.03233,-4.042081 0.0997,0.29104 0.51126,2.34818 0.9146,4.571421 l 0.73334,4.04225 3.349602,0.4231 c 20.61206,2.60353 36.93395,18.66168 39.20886,38.57529 0.21139,1.85038 0.43337,3.54586 0.49331,3.76773 0.0599,0.22186 2.10407,0.765 4.54253,1.20697 2.43846,0.44196 4.37265,0.8645 4.29818,0.93896 -0.0745,0.0745 -2.09778,0.49342 -4.49627,0.93103 l -4.36088,0.79564 -0.25408,2.78255 c -1.87739,20.56069 -18.48765,37.75411 -38.72788,40.08755 -1.84326,0.21251 -3.533592,0.43567 -3.756282,0.49592 -0.2227,0.0602 -0.59466,1.27169 -0.82659,2.69209 -0.23193,1.42041 -0.61517,3.45568 -0.85165,4.52284 l -0.42996,1.94027 z m 4.879032,-22.57777 3.64969,-20.10833 -3.8608,-3.8786 -3.860792,-3.8786 0.048,24.86888 c 0.0264,13.67788 0.12142,24.47199 0.21111,23.98692 0.0897,-0.48506 1.80543,-9.93069 3.812752,-20.99027 z m -6.830262,12.52361 c 0.0146,-0.097 -0.0853,-0.99001 -0.22207,-1.98444 l -0.24867,-1.80804 -2.70697,-0.42754 c -15.63901,-2.47001 -28.15718,-14.96039 -30.7733,-30.70498 -0.52953,-3.18686 -0.41194,-3.04355 -2.75193,-3.35385 l -1.89047,-0.25069 0.2457,1.89046 c 2.42145,18.63162 16.20359,33.469 33.69774,36.27785 1.45521,0.23364 2.88395,0.47312 3.17499,0.53217 0.68877,0.13974 1.44128,0.0525 1.47498,-0.17094 z m 11.577812,-0.71523 c 16.63606,-3.54166 29.9746,-18.40313 31.926,-35.57117 l 0.25499,-2.24334 -1.89119,0.2552 c -2.42232,0.32688 -2.28718,0.20213 -2.56889,2.37148 -2.04879,15.7771 -14.48413,28.74249 -30.24131,31.53033 l -3.40233,0.60196 -0.209765,1.26802 c -0.531747,3.21456 -0.548197,3.20977 6.132495,1.78752 z m -12.455942,-5.01741 c -0.10186,-0.43656 -1.02318,-5.51656 -2.04739,-11.28889 -1.0242,-5.77232 -2.00728,-10.49514 -2.18463,-10.49514 -0.17734,0 -4.21431,2.70537 -8.97105,6.01194 -4.75673,3.30656 -8.69098,5.96562 -8.74276,5.90902 -0.0518,-0.0566 2.67047,-4.07165 6.04946,-8.92235 5.18802,-7.44763 6.04632,-8.85737 5.5181,-9.06327 -0.34403,-0.1341 -5.14989,-1.05538 -10.67968,-2.04727 -5.5298,-0.9919 -10.35578,-1.89261 -10.7244,-2.00159 -1.51565,-0.44806 0.31078,7.65353 2.87647,12.75936 4.79764,9.54749 13.26146,16.41818 23.47824,19.05894 4.34925,1.12417 5.67596,1.14354 5.42764,0.0793 z m 12.322512,-0.0885 c 8.41709,-2.13101 16.42876,-7.76638 21.14698,-14.87466 4.06754,-6.12801 7.46433,-17.47077 5.05669,-16.88562 -0.46564,0.11317 -5.49883,1.05697 -11.18485,2.09734 -5.68603,1.04036 -10.40167,1.95501 -10.47921,2.03255 -0.12626,0.12626 2.40451,3.85822 9.82596,14.48974 1.32057,1.89177 2.30764,3.43959 2.19348,3.43959 -0.11416,0 -2.62631,-1.69238 -5.58256,-3.76085 -2.95625,-2.06847 -6.92789,-4.84634 -8.82587,-6.17305 -2.16027,-1.51006 -3.5018,-2.2475 -3.58706,-1.97179 -0.0749,0.24222 -0.95692,5.04416 -1.96003,10.67096 -1.00311,5.62681 -1.90646,10.58775 -2.00744,11.02431 -0.24875,1.07542 0.87956,1.05693 5.40391,-0.0885 z m -23.200452,-17.78625 6.77871,-4.7338 -0.23297,-1.6162 c -0.12814,-0.88891 -0.33684,-1.8115 -0.46379,-2.0502 -0.14649,-0.27544 -2.9337,2.28996 -7.62903,7.02189 -4.06902,4.10074 -6.91073,7.15354 -6.31492,6.784 0.59582,-0.36954 4.13372,-2.8021 7.862,-5.40569 z m 35.108612,1.82338 c -1.31395,-1.89177 -3.09705,-4.47146 -3.96245,-5.73264 -0.8654,-1.26118 -2.13392,-3.0868 -2.81894,-4.05694 -0.68502,-0.97014 -1.26854,-1.80357 -1.29672,-1.85208 -0.0282,-0.0485 -0.96443,0.0952 -2.08056,0.31936 l -2.02932,0.40755 7.17077,7.17717 c 3.94392,3.94744 7.22374,7.17717 7.28849,7.17717 0.0648,0 -0.95731,-1.54782 -2.27127,-3.43959 z m -25.356682,-15.25764 3.86852,-3.88055 -24.86481,0.0409 c -13.67565,0.0225 -24.6267,0.0966 -24.33566,0.16453 0.70408,0.16446 22.18946,4.06452 29.98612,5.44313 3.39548,0.60039 7.20548,1.30481 8.46666,1.56537 1.26118,0.26056 2.45452,0.49026 2.65185,0.51045 0.19734,0.0202 2.09963,-1.70954 4.22732,-3.84385 z m 54.267622,-4.22295 c -0.16094,-0.14155 -8.94449,-1.80509 -19.519,-3.69675 -10.57452,-1.89167 -19.771,-3.57747 -20.43664,-3.74623 -1.22474,-0.3105 -9.186142,6.59349 -8.633842,7.48712 0.1011,0.16359 11.140942,0.27848 24.532962,0.25532 13.39203,-0.0232 24.21746,-0.15792 24.05652,-0.29946 z m -49.895682,-25.3222 c -0.0221,-14.3696 -0.16174,-24.01921 -0.33575,-23.19515 -0.16388,0.77611 -1.66395,9.03112 -3.33348,18.34445 -1.66952,9.31333 -3.24352,18.04458 -3.49777,19.40278 l -0.46227,2.46944 3.73931,3.79236 c 2.05662,2.0858 3.78171,3.79237 3.83353,3.79237 0.0518,0 0.0772,-11.07282 0.0564,-24.60625 z m -36.30928,19.70382 c 2.5167,-15.99896 15.53714,-28.62794 31.84914,-30.8916 1.24332,-0.17254 1.6767,-0.38626 1.67958,-0.82828 0.002,-0.32766 0.10228,-1.19106 0.22255,-1.91867 l 0.21866,-1.32291 h -1.39248 c -16.46224,0 -33.47332,15.95586 -36.60381,34.33323 -0.70158,4.11864 -0.71336,4.09316 1.68953,3.65762 l 1.91489,-0.34708 z m 77.418232,1.28645 c -1.99436,-18.40859 -18.04863,-34.64389 -35.73607,-36.13903 l -2.623512,-0.22176 0.227817,1.37935 c 0.125305,0.75865 0.229575,1.64745 0.231715,1.97511 0.003,0.44271 0.43433,0.65424 1.67957,0.82347 16.29274,2.21414 29.32658,14.8612 31.85062,30.90544 l 0.42339,2.69132 1.81057,0.34914 c 0.99582,0.19202 1.93752,0.36999 2.09267,0.39548 0.15516,0.0255 0.17461,-0.94584 0.0432,-2.15852 z m -73.637982,0.6468 c 1.32237,-0.27485 6.21431,-1.16738 10.87098,-1.98341 4.65667,-0.81604 8.52501,-1.53586 8.59632,-1.59961 0.0713,-0.0637 -1.45488,-2.3859 -3.39154,-5.16033 -1.93665,-2.77443 -4.45562,-6.39844 -5.59771,-8.05336 -1.14208,-1.65491 -2.36425,-3.40116 -2.71592,-3.88055 l -0.63941,-0.87162 -1.43188,1.5875 c -4.34696,4.8194 -7.9406,12.46094 -8.59968,18.28642 -0.27994,2.47438 -0.45431,2.37398 2.90884,1.67496 z m 68.434952,-1.56413 c -0.44508,-4.25829 -2.90383,-10.49052 -5.83911,-14.8005 -1.61946,-2.3779 -4.13541,-5.25777 -4.37503,-5.00786 -0.52519,0.54771 -12.29079,17.70888 -12.19153,17.78242 0.16982,0.12583 21.14707,3.99093 21.95377,4.04503 0.60659,0.0407 0.6479,-0.14389 0.4519,-2.01909 z m -44.782702,-2.8305 c 0.28014,-0.15568 -2.14262,-2.80196 -6.83264,-7.46301 -3.99668,-3.97199 -7.12888,-6.97085 -6.96044,-6.66414 0.16844,0.30672 2.52875,3.77104 5.24514,7.6985 l 4.93889,7.14084 1.5875,-0.23549 c 0.87313,-0.12952 1.78282,-0.34404 2.02155,-0.4767 z m 24.792802,-7.67533 c 5.12708,-5.16206 6.71589,-6.93708 5.46482,-6.1053 -1.8194,1.20963 -13.31273,9.14555 -13.52456,9.33844 -0.11489,0.10462 0.62995,4.04488 0.76461,4.04488 0.0365,0 3.31933,-3.27511 7.29513,-7.27802 z M 91.633318,125.9413 c 1.05204,-5.86804 1.98336,-10.94698 2.06961,-11.28653 0.75881,-2.98745 -14.13459,2.76817 -19.893,7.68773 -2.23451,1.909 -2.25624,1.99251 -0.75817,2.91313 0.63059,0.38753 4.55965,3.09691 8.73125,6.02085 4.1716,2.92394 7.6641,5.32025 7.76111,5.32512 0.097,0.005 1.03715,-4.79225 2.0892,-10.6603 z m 20.926592,5.29925 c 3.93069,-2.74114 7.74203,-5.38017 8.46963,-5.86451 1.8571,-1.23622 1.65665,-1.54157 -3.36373,-5.12404 -5.64508,-4.02825 -17.58066,-7.85814 -17.02714,-5.46367 0.10637,0.46012 0.99339,5.36095 1.97117,10.89074 0.97777,5.52979 1.85,10.26267 1.93826,10.5175 0.19387,0.55971 -0.61554,1.0604 8.01181,-4.95602 z"
       id="path1"
       sodipodi:nodetypes="sscscsscccsscssscsssssscsscsscsccccssccsscssscsssssscssscsssssssssssssssssssssssssssssscsssssssssscsssccscsssscsssscscssscssccsscscssscssscsccscsssssssssscssssssssssssscsssssssscssscssssssss" /><path
       style="font-size:10.5833px;line-height:1.25;font-family:Dungeon;-inkscape-font-specification:Dungeon;text-align:center;text-anchor:middle;stroke-width:0.264583;fill:url(#radialGradient10)"
       d="m 93.807973,96.766146 q 0.191202,-0.434081 0.191202,-0.728636 v -5.591372 q 0,-0.273884 -0.191202,-0.738971 h 2.253085 l 3.886057,6.020286 v -5.281315 q 0,-0.320393 -0.1912,-0.738971 h 1.167885 q -0.1912,0.434081 -0.1912,0.738971 v 6.320008 h -2.036053 l -3.922228,-6.11847 v 5.389834 q 0,0.294555 0.186034,0.728636 z"
       id="text1"
       aria-label="N" /><path
       style="font-size:10.5833px;line-height:1.25;font-family:Dungeon;-inkscape-font-specification:Dungeon;text-align:center;text-anchor:middle;stroke-width:0.264583;fill:url(#linearGradient17);fill-opacity:1"
       d="m 151.54809,153.54751 q 0.1912,-0.43408 0.1912,-0.72863 v -5.59138 q 0,-0.27388 -0.1912,-0.73897 h 5.7464 l 0.12919,0.84749 q -0.42375,-0.10852 -0.88883,-0.10852 h -3.19876 v 2.3306 h 3.32278 q 0.28422,0 0.5116,-0.0827 v 0.9095 q -0.22738,-0.0878 -0.5116,-0.0878 h -3.32278 v 2.51147 h 3.25043 q 0.41341,0 0.88884,-0.11886 l -0.12403,0.85783 z"
       id="text2"
       aria-label="E" /><path
       style="font-size:10.5833px;line-height:1.25;font-family:Dungeon;-inkscape-font-specification:Dungeon;text-align:center;text-anchor:middle;stroke-width:0.264583;fill:url(#linearGradient18)"
       d="m 35.814065,152.95297 -1.591629,-6.15981 q -0.118855,-0.46509 -0.315225,-0.89917 h 1.906854 q -0.02067,0.27388 -0.02067,0.27388 0,0.24288 0.07235,0.53227 l 1.214393,4.71804 1.472773,-5.52419 h 1.875849 l 1.446935,5.52419 1.21956,-4.65603 q 0.113688,-0.44442 0.113688,-0.65629 0,-0.0207 -0.0052,-0.0879 -0.0052,-0.0723 -0.0052,-0.12402 h 1.080034 q -0.273885,0.46509 -0.382405,0.8785 l -1.607132,6.18048 h -1.705316 l -1.534786,-5.87559 -1.565791,5.87559 z"
       id="text3"
       aria-label="W" /><path
       style="font-size:10.5833px;line-height:1.25;font-family:Dungeon;-inkscape-font-specification:Dungeon;text-align:center;text-anchor:middle;stroke-width:0.264583;fill:url(#radialGradient6)"
       d="m 93.780627,211.66667 -0.134358,-0.84749 q 0.475422,0.10852 0.899167,0.10852 h 3.395131 q 0.253214,0 0.341063,-0.093 0.09302,-0.0982 0.09302,-0.41858 v -1.13171 q 0,-0.30489 -0.09819,-0.41341 -0.08785,-0.0827 -0.335896,-0.0827 h -3.06957 q -0.635618,0 -0.894,-0.28939 -0.258381,-0.29455 -0.258381,-1.00252 v -1.54512 q 0,-1.34358 1.204057,-1.34358 h 4.805895 l 0.13952,0.84749 q -0.434077,-0.10852 -0.899163,-0.10852 h -3.209096 q -0.268717,0 -0.356567,0.10335 -0.08785,0.0982 -0.08785,0.39791 v 0.91984 q 0,0.29972 0.08785,0.3979 0.08785,0.0982 0.356567,0.0982 h 3.048899 q 0.635618,0 0.89917,0.29455 0.26354,0.28939 0.26354,0.99736 v 1.77766 q 0,1.33325 -1.204051,1.33325 z"
       id="text4"
       aria-label="S" /></g></svg>
