<?xml version="1.0" encoding="UTF-8" standalone="no"?>
<!-- Created with Inkscape (http://www.inkscape.org/) -->

<svg
   width="200"
   height="200"
   viewBox="0 0 52.916665 52.916666"
   version="1.1"
   id="svg1"
   sodipodi:docname="map_pattern.svg"
   inkscape:version="1.3.2 (091e20ef0f, 2023-11-25, custom)"
   xmlns:inkscape="http://www.inkscape.org/namespaces/inkscape"
   xmlns:sodipodi="http://sodipodi.sourceforge.net/DTD/sodipodi-0.dtd"
   xmlns="http://www.w3.org/2000/svg"
   xmlns:svg="http://www.w3.org/2000/svg">
  <sodipodi:namedview
     id="namedview1"
     pagecolor="#ffffff"
     bordercolor="#666666"
     borderopacity="1.0"
     inkscape:showpageshadow="2"
     inkscape:pageopacity="0.0"
     inkscape:pagecheckerboard="0"
     inkscape:deskcolor="#d1d1d1"
     inkscape:zoom="1.0824912"
     inkscape:cx="99.307967"
     inkscape:cy="99.307967"
     inkscape:window-width="1918"
     inkscape:window-height="1028"
     inkscape:window-x="0"
     inkscape:window-y="26"
     inkscape:window-maximized="1"
     inkscape:current-layer="svg1"
     inkscape:export-bgcolor="#ffffffff" />
  <defs
     id="defs1" />
  <path
     style="fill:#000000;stroke-width:0.264583"
     id="path8"
     d="m 25.594493,-2.8399983 c -0.44508,0.3130035 -0.872173,0.6532888 -1.335239,0.9390104 -0.647571,0.3995653 -1.32825,0.7427998 -1.992376,1.11419965 C 21.029272,-0.0582989 19.775461,0.6433364 18.55406,1.3986798 16.48598,2.6776285 13.355874,4.7672765 11.444707,6.249336 10.249612,7.1761002 9.1258939,8.1914176 7.9664874,9.1624585 4.9315764,11.880296 1.7483798,14.432269 -1.2267591,17.217523 c -1.646255,1.541184 -3.1983333,3.176403 -4.6784493,4.875388 -0.5170984,0.420644 -1.0341969,0.841289 -1.5512954,1.261933 0.011105,0.04641 2.1990404,-0.477115 2.1879348,-0.523529 v 0 c 0.2548041,-0.35108 0.5096081,-0.702161 0.7644122,-1.053242 1.5504001,-1.703708 3.1665283,-3.340043 4.88185601,-4.880549 C 1.2799108,16.087263 2.2291198,15.330323 3.1302486,14.518858 11.12361,7.3208514 0.50326258,16.595637 9.3867466,8.9000591 14.384342,5.1188305 12.085809,6.7673222 17.02519,3.3689107 18.110456,2.622222 19.177893,1.8486991 20.2838,1.1329363 c 0.226588,-0.14665217 0.499179,-0.20970677 0.731757,-0.34666227 0.726883,-0.42803193 1.403445,-0.94022386 2.142919,-1.34611738 0.243238,-0.13351229 0.526399,-0.17568532 0.789599,-0.26352796 0.04278,0.0349258 1.689197,-1.98170119 1.646418,-2.01662699 z" />
  <path
     style="fill:#000000;stroke-width:0.264583"
     id="path9"
     d="m 35.844482,-0.80901071 c -0.184748,0.15633404 -0.369493,0.3126681 -0.554241,0.46900213 C 34.942457,0.0089778 34.61526,0.37977021 34.246888,0.70695054 33.514971,1.3570212 32.728603,1.9437405 31.992453,2.5890115 c -1.8894,1.65615 -3.578167,3.3672718 -5.49362,5.0065959 -1.173609,1.0044242 -2.399085,1.9466105 -3.598629,2.9199156 -1.083918,0.964271 -2.139873,1.960923 -3.251754,2.892812 -1.125734,0.9435 -2.299785,1.827873 -3.458207,2.730939 -1.154536,0.900036 -4.444005,3.430812 -5.762723,4.357695 -1.5736429,1.106061 -3.160487,2.054524 -4.7944279,3.064521 -0.5214543,0.410318 -1.0091198,0.867664 -1.5643627,1.230956 -1.3709475,0.897002 -2.8880893,1.552963 -4.27541569,2.424418 -0.41527432,0.260856 -0.78167913,0.593736 -1.19184911,0.862547 -0.2079325,0.136271 -2.4002446,1.428843 -2.6923909,1.601497 -1.4312315,0.820986 -1.0277118,0.523565 -2.2671431,1.474724 -0.3310388,0.254042 -0.6758401,0.492881 -0.9819331,0.776486 -1.9895161,1.843354 1.0585167,-0.566055 -1.5434344,1.405718 0.00899,0.04196 1.9872423,-0.381786 1.9782533,-0.423749 v 0 c 1.3253791,-1.422596 2.9260368,-2.562757 4.621102,-3.507976 0.4641468,-0.2555 0.9282936,-0.511 1.39244046,-0.7665 0.31303674,-0.25935 0.59053597,-0.568883 0.93911016,-0.778047 0.63894891,-0.38341 1.35006988,-0.633164 2.00499438,-0.988595 0.6384181,-0.346471 1.2657068,-0.715405 1.8719847,-1.115466 0.564393,-0.372422 1.0907035,-0.799573 1.636055,-1.199359 0.6610535,-0.435261 1.322107,-0.870523 1.9831605,-1.305784 0.8647835,-0.506466 1.7713204,-0.947577 2.5943504,-1.519398 1.566505,-1.088372 2.680876,-2.77065 4.531636,-3.494381 1.246091,-0.858688 2.59323,-1.57677 3.774647,-2.522467 2.169069,-1.736289 3.617158,-4.295567 6.225072,-5.542972 10.97168,-8.9466141 -2.869881,2.522624 6.335985,-5.6244516 0.942099,-0.8337454 2.006703,-1.5211642 2.954427,-2.348508 0.634405,-0.5538199 1.159677,-1.22374259 1.784437,-1.78841774 0.515014,-0.46548455 1.552731,-1.20984056 2.204233,-1.68530826 -0.0099,-0.044632 -2.113825,0.41990097 -2.103969,0.46453289 z" />
  <path
     style="fill:#000000;stroke-width:0.264583"
     id="path10"
     d="M 47.866456,-0.02800398 C 46.767273,0.79191484 46.336635,2.155647 45.430606,3.1276856 44.346291,4.2909982 43.085107,5.2760371 41.927245,6.3661715 39.933467,8.2433262 35.33513,12.731695 33.481351,14.391705 c -1.780188,1.59411 -3.634894,3.102992 -5.45234,4.654488 -3.002493,3.137379 -6.542757,5.720062 -9.574529,8.826613 -1.088805,1.115663 -1.935795,2.450738 -3.019701,3.571161 -1.12857,1.16659 -2.430216,2.153483 -3.60346,3.275134 -2.1857545,2.089637 -2.7967464,2.858444 -4.6847191,4.993251 -0.5250313,0.589775 -0.9931342,1.235644 -1.5750937,1.769327 -0.637758,0.584851 -1.3871974,1.035137 -2.0669594,1.57059 -0.9698918,0.763993 -1.5327429,1.313757 -2.4899163,2.037361 -0.66093631,0.499655 -1.7361478,1.224063 -2.4282491,1.697603 -2.274748,1.490041 0.08928,-0.01437 -2.2754664,1.357006 -0.2339843,0.135691 -0.4454242,0.308411 -0.6813674,0.440671 -0.2296113,0.12871 -0.4995384,0.185825 -0.7124322,0.340628 -0.056675,0.04121 -0.026586,0.137601 -0.039879,0.206404 -0.2056421,0.105867 -0.4112839,0.211738 -0.616926,0.317608 0.043125,0.255365 -0.1549718,0.410414 -0.27007,0.616477 0.0095,0.03802 1.8018069,-0.409821 1.7923068,-0.447842 v 0 c 0.2986767,-0.449503 -0.1720856,-0.296132 0.7531491,-0.602885 0.3251692,-0.34852 0.7434408,-0.480978 1.1349032,-0.747252 0.1841175,-0.125238 0.3346297,-0.296159 0.5206854,-0.418499 3.3989373,-2.234954 -1.2848714,1.040497 2.05890333,-1.329034 0.25674218,-0.156327 2.81897617,-1.71218 2.97846487,-1.8278 C 3.8688877,44.228588 4.814916,43.180208 5.3626355,42.672529 8.403247,39.854187 5.800889,42.52936 8.7555884,39.359353 12.353771,35.030047 8.6096172,39.372106 13.48015,34.36353 c 0.978958,-1.006703 1.85293,-2.112989 2.844556,-3.107219 1.296896,-1.300298 2.674152,-2.517902 4.016203,-3.771543 3.144154,-2.93703 6.310678,-5.850053 9.451023,-8.791173 7.757377,-7.282104 1.870427,-1.806513 9.730608,-8.9823115 3.671654,-3.3519665 3.935724,-3.5516637 7.254311,-6.8847557 0.7166,-0.7197314 1.46258,-1.41435 2.119559,-2.18888629 0.257786,-0.30391404 0.406344,-0.68567884 0.609515,-1.02851827 -0.0077,-0.0347784 -1.647166,0.3280944 -1.639469,0.36287278 z" />
  <path
     style="fill:#000000;stroke-width:0.264583"
     id="path11"
     d="m 56.646653,3.0496658 c -0.06303,0.1793832 -0.08341,0.3800885 -0.189087,0.5381495 -0.246528,0.3687289 -0.571812,0.6782493 -0.853342,1.0210006 -0.466558,0.5680173 -0.953656,1.1203459 -1.390872,1.7112454 -0.546476,0.7385632 -0.996836,1.5461982 -1.557766,2.2738442 -0.02045,0.026529 -4.551482,5.4037075 -4.591177,5.4508215 -0.625758,0.850845 -1.27988,1.681542 -1.877274,2.552534 -0.503913,0.734694 -0.909265,1.534647 -1.424525,2.261428 -2.225016,3.138424 -1.088665,1.058261 -3.384143,4.169903 -0.509045,0.690038 -0.916844,1.449786 -1.401844,2.156931 -0.583293,0.850454 -1.201476,1.676445 -1.802212,2.514666 -0.408503,0.811721 -0.742,1.665759 -1.225513,2.435164 -0.675108,1.074291 -1.543902,2.016792 -2.239179,3.078144 -0.628407,0.959276 -1.114743,2.005788 -1.726605,2.975703 -0.614317,0.973801 -1.303044,1.898645 -1.949426,2.851465 -0.658974,0.97138 -2.718827,4.045717 -3.419361,5.090379 -3.626903,5.661615 0.140983,-0.602707 -2.320949,4.545783 -0.345446,0.72241 -0.851435,1.357929 -1.229069,2.064046 -0.273572,0.511537 -0.423201,1.086183 -0.721697,1.583589 -1.241145,2.068203 -0.942572,0.485733 -1.093936,2.180233 -0.319168,0.387763 -0.749068,0.706358 -0.957505,1.163286 -0.156844,0.343823 0.07936,0.791787 -0.08874,1.130249 -0.296336,0.596644 -0.882879,1.00379 -1.247942,1.561039 -0.262879,0.401273 -0.381787,0.882772 -0.624218,1.296718 -1.492366,2.548194 -0.340979,0.0572 -1.213122,2.061284 -0.370725,0.52497 -0.520353,1.161399 -0.832776,1.714693 -0.19654,0.348068 -0.477438,0.645652 -0.659672,1.001419 -0.129049,0.251936 -0.177548,0.537567 -0.266321,0.806352 0.01295,0.04242 2.012731,-0.568238 1.999777,-0.610658 v 0 c 0.143784,-0.413674 0.450059,-1.338485 0.645293,-1.707219 0.274248,-0.517967 0.922491,-1.352346 1.26612,-1.814909 -0.01148,-0.247608 -0.103122,-0.504658 -0.03442,-0.742821 0.35451,-1.22896 0.986027,-1.345459 1.583066,-2.530265 0.203573,-0.403985 0.126348,-0.920462 0.357886,-1.309093 2.682936,-4.503245 0.401614,0.698477 1.725025,-2.502691 0.242901,-0.354213 0.501159,-0.698373 0.728702,-1.062646 0.246347,-0.394374 0.463048,-0.806519 0.691769,-1.211371 0.954872,-1.690192 1.018808,-1.764223 1.888267,-3.616293 0.341029,-0.726445 0.607568,-1.488911 0.988602,-2.195192 0.441373,-0.818118 0.98211,-1.578597 1.473166,-2.367894 2.038511,-3.929443 0.265356,-0.732457 3.007799,-4.968446 0.593653,-0.916962 1.135578,-1.866527 1.719752,-2.789558 0.645438,-1.019831 1.316614,-2.02316 1.968852,-3.038657 2.68555,-4.181258 1.018995,-1.756077 3.759948,-5.579071 6.971263,-9.089658 -2.178063,2.995271 3.300164,-4.670228 0.508752,-0.711878 1.108115,-1.354933 1.63684,-2.052104 0.507735,-0.669493 0.978095,-1.366541 1.471575,-2.046611 1.185479,-1.633727 2.390005,-3.25358 3.575116,-4.887575 0.574609,-0.856682 1.09473,-1.752539 1.723829,-2.570046 2.137027,-2.7770445 2.357329,-2.4337297 4.28321,-5.1080358 0.355643,-0.493848 0.543566,-1.0989456 0.920697,-1.5765828 0.251217,-0.3181651 1.401469,-1.2630853 1.849374,-1.6376953 -0.0086,-0.047563 -2.250736,0.3580301 -2.242132,0.4055927 z" />
  <path
     style="fill:#000000;stroke-width:0.264583"
     id="path12"
     d="m 54.951508,25.030366 c -0.212895,0.314329 -0.425789,0.628659 -0.638683,0.942988 -0.338008,0.686525 -0.611926,1.408512 -1.014024,2.059575 -0.622236,1.007507 -1.390856,1.917576 -2.049886,2.901408 -0.812321,1.212667 -1.575371,2.457624 -2.363057,3.686439 -0.792316,1.276255 -1.545384,2.57773 -2.376945,3.82877 -0.883669,1.329431 -1.844273,2.606087 -2.766409,3.909131 -2.633814,5.501489 -0.299768,1.121281 -3.909513,6.511859 -0.585946,0.875017 -1.090043,1.802156 -1.638649,2.701052 -0.470104,0.770271 -1.007232,1.502674 -1.417466,2.306428 -0.265519,0.520219 -0.37366,1.107829 -0.599982,1.646256 -0.175961,0.418613 -0.403365,0.813689 -0.605049,1.220536 -0.286771,0.485008 -1.428012,1.805252 -1.528199,2.36146 -0.03384,0.187843 0.227521,0.365503 0.168868,0.547137 -0.7879,2.439958 -0.505463,-0.352513 -0.613627,1.184732 0.01651,0.10508 0.03305,0.210162 0.04957,0.315241 0.01614,0.04801 2.279378,-0.712724 2.263241,-0.760735 v 0 c -0.03463,-0.09781 -0.06927,-0.195631 -0.103905,-0.293444 -0.03593,-0.133364 -0.104444,-0.262012 -0.107783,-0.400088 -0.0068,-0.281339 0.179176,-0.981728 0.289169,-1.206304 0.12937,-0.264141 0.36168,-0.471813 0.476705,-0.74251 0.07612,-0.179126 0.05621,-0.385173 0.08431,-0.577758 0.160427,-0.279553 0.320857,-0.559104 0.481287,-0.838655 3.576027,-4.27414 -0.757385,1.396944 1.359366,-2.905135 0.432356,-0.878719 1.194287,-1.555997 1.715609,-2.385031 0.535088,-0.850922 0.940503,-1.777466 1.447646,-2.645331 0.620083,-1.061143 1.288624,-2.093219 1.932935,-3.139829 0.645409,-1.118153 1.290815,-2.236303 1.936223,-3.354456 0.789139,-1.266082 1.532205,-2.562069 2.367413,-3.798242 2.905537,-4.300424 2.7301,-3.362256 5.299262,-7.651983 0.528585,-0.882573 0.851779,-1.883404 1.425459,-2.737355 0.788408,-1.173583 1.925862,-2.081796 2.701716,-3.269662 -0.01238,-0.04806 -2.277981,0.535445 -2.265602,0.583506 z" />
  <path
     style="fill:#000000;stroke-width:0.264583"
     id="path13"
     d="M 58.880893,35.514237 C 58.564152,35.214978 58.177069,34.975863 57.930674,34.616464 57.593647,34.124865 57.434601,33.531955 57.159418,33.003251 56.768134,32.251472 56.408954,31.477188 55.93208,30.776568 55.384747,29.972428 54.698201,29.272222 54.098578,28.506279 51.055746,24.61944 53.586266,27.556624 50.077901,23.67977 46.233437,17.174813 50.835549,24.308991 45.925118,18.626405 45.223218,17.814132 44.829872,16.77138 44.159082,15.933231 43.525437,15.141494 42.7518,14.472469 42.030308,13.759865 41.409233,13.146439 40.663362,12.648382 40.132023,11.955774 39.706753,11.401425 39.513578,10.702713 39.204354,10.076183 38.692267,9.7796706 38.083048,9.6085032 37.668091,9.1866454 37.199863,8.7106299 37.045952,7.9974407 36.638954,7.4681188 36.067248,6.7245867 35.365174,6.0908093 34.746001,5.3863139 33.91417,4.4398525 33.0826,3.4924066 32.286408,2.5157744 c -2.708336,-3.32212234 -2.319229,-2.92706948 -4.570825,-6.4274283 -2.611641,-3.0228431 -1.468952,-1.5513733 -3.48519,-4.369454 -0.01891,-0.030394 -1.451677,0.8609158 -1.432769,0.8913093 v 0 c 1.723547,3.0006591 0.676793,1.4693653 3.258553,4.5107451 0.813882,0.9853317 1.653413,1.95002719 2.441646,2.95599496 0.840169,1.07224814 1.570231,2.23002604 2.442036,3.27671234 0.813644,0.9768591 1.8778,1.7426077 2.606413,2.7844321 0.540252,0.7724952 0.579599,1.8325819 1.148315,2.5843698 0.759008,1.0033396 2.320153,1.1868816 2.914158,2.3984903 1.667536,2.650414 0.487426,1.050429 2.916878,3.601175 1.196596,1.256338 3.100091,3.390482 4.309382,4.591942 0.780719,0.775665 1.750399,1.37557 2.410386,2.256251 0.661226,0.882333 0.995085,1.967927 1.492626,2.951891 0.76532,0.794329 1.581412,1.542695 2.295964,2.382988 0.642054,0.755034 1.199253,1.579025 1.765117,2.392722 1.5874,2.282632 3.024966,4.672928 4.162277,7.212301 0.02111,0.04072 1.940645,-0.955259 1.919518,-0.995979 z" />
  <path
     style="fill:#000000;stroke-width:0.264583"
     id="path14"
     d="m -1.4933629,-7.6659162 c 0.52842654,1.0813917 1.71447588,1.5651749 2.41214039,2.484855 0.52509581,0.6921952 0.71167691,1.6060168 1.25319701,2.2854401 0.8236702,1.0334257 1.8841189,1.8539446 2.8030033,2.80370928 2.0037528,2.07109162 4.8102445,5.15535862 6.7212162,7.23496062 2.41519,2.8377191 5.329331,5.1911782 7.848727,7.9255362 1.257449,1.364739 2.294042,2.924272 3.56926,4.272421 1.369472,1.447795 2.879526,2.756345 4.35078,4.100581 1.642274,1.50049 6.378004,5.615486 8.162851,7.172289 2.860225,2.58908 3.998307,3.734112 7.02323,6.039644 1.208934,0.921424 2.468655,1.774288 3.70976,2.651903 1.117063,0.7899 2.280057,1.516628 3.36464,2.350563 1.928534,1.482852 2.646211,2.304786 4.264623,3.944742 2.031934,1.133904 1.135779,0.598069 2.706142,1.577559 0.02302,0.03236 1.548284,-1.052329 1.525275,-1.084685 v 0 c -1.653968,-0.82668 -0.881602,-0.228243 -2.176661,-1.963219 -5.342207,-2.528803 0.293945,0.373393 -5.18378,-3.287324 -1.175692,-0.785706 -2.554491,-1.259448 -3.66835,-2.130599 -1.143822,-0.894586 -1.918618,-2.198278 -3.042412,-3.117901 -9.708356,-7.944553 1.934779,3.286168 -7.193745,-5.882004 -1.25834,-1.144485 -2.545824,-2.257722 -3.77502,-3.433451 -1.359619,-1.300478 -2.594522,-2.730259 -3.989215,-3.99305 -1.502791,-1.360663 -3.217171,-2.478426 -4.69312,-3.868158 -1.35838,-1.27903 -2.504768,-2.766448 -3.789757,-4.119192 C 17.957659,11.401844 15.670037,9.1896728 12.839463,6.3986901 3.7454369,-4.8817185 15.098787,8.9498986 6.3576165,-0.97184005 5.5050766,-1.9395227 4.8068994,-3.0351296 3.9681808,-4.014816 3.3921737,-4.6876361 2.6516189,-5.215229 2.1189854,-5.9228817 1.7083597,-6.4684361 1.543258,-7.1669105 1.1668659,-7.7366229 0.92616704,-8.1009481 0.57717758,-8.3807833 0.28233341,-8.7028638 0.26033645,-8.740532 -1.5153599,-7.7035844 -1.4933629,-7.6659162 Z" />
  <path
     style="fill:#000000;stroke-width:0.264583"
     id="path15"
     d="m -6.4368981,9.1828735 c 1.7287047,1.3444785 3.0943812,3.0667935 4.848692,4.3906255 1.03927091,0.784251 2.22987632,1.355061 3.2605861,2.15053 10.234511,7.898669 -5.0150049,-2.842122 6.7561297,5.269754 7.2335473,6.456555 -0.7472357,-0.506992 6.6161623,5.441166 1.189526,0.960901 2.333697,1.976975 3.479432,2.989691 1.141159,1.008671 2.194432,2.1185 3.380572,3.073868 5.063035,3.620278 2.643952,1.777746 7.271901,5.508308 4.090887,3.903856 1.268596,1.256795 5.208479,4.845489 0.719921,0.655749 1.389566,1.369883 2.15164,1.976128 0.734597,0.584388 1.643832,0.942361 2.326674,1.586465 1.725956,2.415461 0.733518,1.391685 2.923283,3.122798 0.466699,0.389697 0.968497,0.740847 1.400096,1.169093 0.379547,0.376598 0.632447,0.870345 1.023165,1.23534 0.38649,0.361045 0.883034,0.586171 1.289267,0.924851 0.443857,0.370051 0.811096,0.826016 1.254842,1.196205 0.440925,0.367837 0.9374,0.663906 1.393317,1.012994 0.389625,0.298326 0.761592,0.61903 1.142389,0.928548 0.289851,0.253089 0.579699,0.506179 0.869547,0.759269 0.02029,0.02825 1.351939,-0.928653 1.33164,-0.9569 v 0 c -0.272354,-0.26293 -0.544708,-0.525857 -0.817062,-0.788786 -1.929839,-2.19228 0.184962,0.0608 -2.30732,-2.081954 -0.432319,-0.371689 -0.764937,-0.853654 -1.214268,-1.204587 -0.430292,-0.336066 -0.952548,-0.536263 -1.405324,-0.841356 -1.371473,-0.924142 -1.42367,-1.089512 -2.61276,-2.268405 -1.898687,-3.045214 0.09012,-0.400029 -3.168799,-2.954348 -0.701738,-0.550019 -1.248264,-1.275424 -1.914302,-1.868173 -0.739873,-0.658458 -1.526334,-1.262756 -2.299425,-1.881878 -0.895559,-0.717198 -1.902465,-1.308179 -2.70628,-2.126888 -0.858065,-0.873963 -1.493914,-1.941279 -2.240873,-2.911919 -2.420546,-1.804614 -4.913285,-3.606729 -7.217245,-5.560846 -1.162181,-0.985713 -2.173164,-2.149324 -3.387157,-3.070473 -1.277897,-0.96964 -2.782214,-1.613522 -4.061466,-2.581372 -0.420843,-0.3184 -5.895619,-5.471308 -6.1877642,-5.74522 C 8.7392914,19.032345 7.5509066,18.111274 6.3161319,17.255254 5.1600692,16.453802 3.8992013,15.803922 2.7810663,14.950352 -1.7897847,11.461025 1.7190125,13.624518 -2.013359,10.192043 -2.8859109,9.3896012 -4.0402734,8.939074 -4.8942352,8.1068832 -4.9170608,8.0741585 -6.4597234,9.1501488 -6.4368981,9.1828735 Z" />
  <path
     style="fill:#000000;stroke-width:0.264583"
     id="path16"
     d="m -13.377375,18.894001 c 0.126986,0.212534 0.253972,0.425069 0.380957,0.637603 0.325884,0.353831 0.71396,0.659169 0.977651,1.061491 0.338396,0.516303 0.462751,1.154976 0.809718,1.665558 3.9302809,5.783643 -1.348305,-3.068539 2.9242192,3.385742 0.456796,0.690058 0.7533783,1.4737 1.1300677,2.210549 1.0582383,1.453459 2.6797335,2.343629 3.8544356,3.674401 0.6007965,0.680617 0.8851481,1.624177 1.5573537,2.234369 0.7170046,0.650862 1.77074067,0.836184 2.51185865,1.45945 0.72358925,0.60852 1.21010635,1.452983 1.81515945,2.179476 0.8628156,0.645903 1.7256311,1.291807 2.5884464,1.93771 3.2235536,2.729831 1.7092776,1.36602 4.9113763,4.428535 0.827794,0.79171 1.669186,1.569548 2.480581,2.378057 0.832353,0.829389 1.607598,1.715325 2.449766,2.534745 2.230451,2.17021 2.816988,2.532531 5.282664,4.490918 5.609824,6.272144 -1.224422,-1.148312 4.439902,4.354261 0.670248,0.651108 1.298816,1.349196 1.86779,2.090439 0.499888,0.651243 0.811353,1.436322 1.328661,2.073812 2.08463,2.014135 1.173398,0.984496 2.778532,3.048648 1.729089,0.761048 1.908749,0.611481 2.255613,2.362732 0.02527,0.03999 1.9105,-1.151297 1.88523,-1.191289 v 0 C 34.111168,65.056577 33.367728,64.23748 32.372416,63.656431 31.95566,63.191117 31.48439,62.769392 31.122151,62.260485 c -0.4318,-0.606642 -0.57404,-1.426155 -1.119375,-1.933181 -0.67673,-0.62919 -1.742025,-0.725686 -2.41799,-1.355699 -0.676135,-0.630168 -1.01015,-1.548156 -1.522816,-2.31721 -2.190362,-3.285768 -0.902207,-1.869723 -4.39589,-4.390747 -0.693789,-0.900824 -1.274275,-1.901579 -2.081367,-2.70247 -0.824597,-0.818261 -1.88337,-1.364097 -2.771412,-2.113023 -0.910907,-0.76821 -1.698854,-1.675982 -2.619068,-2.433019 C 13.277241,44.260748 12.224045,43.68211 11.311694,42.922118 10.426256,42.184544 9.6460018,41.329154 8.8131559,40.532674 8.0044204,39.860886 7.1956852,39.189101 6.3869498,38.517314 5.734247,37.729757 5.1625949,36.867298 4.4288416,36.154651 1.1932023,33.012073 2.9709805,35.722687 0.14889906,32.501967 -0.44725931,31.821596 -0.78781872,30.92628 -1.4476663,30.307483 c -1.3256104,-1.243139 -3.3338852,-1.648642 -4.3098757,-3.33897 -0.2950631,-0.781362 -0.4494514,-1.631541 -0.8851889,-2.344088 -0.4129392,-0.675266 -1.0990533,-1.140621 -1.6135909,-1.74208 -0.4468968,-0.522392 -0.835811,-1.091931 -1.2681267,-1.626453 -0.3885356,-0.480391 -0.8457805,-0.90737 -1.1939905,-1.417748 -0.135652,-0.198826 -0.713126,-1.449357 -0.90602,-1.862559 -0.01948,-0.03719 -1.772398,0.881231 -1.752916,0.918416 z" />
</svg>
